<?xml version="1.0" standalone="no"?>
<!DOCTYPE svg PUBLIC "-//W3C//DTD SVG 20010904//EN"
 "http://www.w3.org/TR/2001/REC-SVG-20010904/DTD/svg10.dtd">
<svg version="1.0" xmlns="http://www.w3.org/2000/svg"
 width="1323.000000pt" height="1323.000000pt" viewBox="0 0 1323.000000 1323.000000"
 preserveAspectRatio="xMidYMid meet">
<metadata>
Created by potrace 1.11, written by Peter Selinger 2001-2013
</metadata>
<g transform="translate(0.000000,1323.000000) scale(0.100000,-0.100000)"
fill="#000000" stroke="none">
<path d="M6636 13205 c-15 -13 -109 -102 -208 -197 -100 -95 -198 -189 -218
-208 -20 -19 -117 -111 -215 -205 -98 -93 -195 -186 -215 -205 -47 -45 -369
-352 -514 -491 -267 -256 -246 -239 -291 -233 -22 3 -65 9 -95 14 -30 5 -77
12 -105 15 -27 3 -70 10 -95 15 -25 5 -83 14 -130 20 -47 5 -96 12 -110 14
-33 6 -168 27 -200 31 -153 23 -251 37 -280 41 -19 3 -75 11 -125 19 -49 8
-110 16 -135 20 -25 3 -70 10 -100 15 -30 5 -75 11 -100 14 -25 4 -70 10 -100
15 -30 6 -77 12 -105 16 -27 3 -75 10 -105 15 -30 5 -75 12 -100 15 -25 3 -52
8 -60 10 -8 2 -42 7 -75 10 -32 4 -62 8 -65 10 -3 2 -33 6 -66 10 l-62 6 -7
-48 c-5 -26 -9 -52 -11 -58 -1 -5 -14 -75 -28 -155 -14 -80 -28 -154 -30 -165
-5 -24 -33 -178 -41 -220 -3 -16 -7 -43 -10 -60 -3 -16 -8 -41 -10 -55 -12
-58 -16 -78 -25 -130 -5 -30 -16 -93 -25 -140 -13 -72 -36 -198 -49 -275 -4
-19 -14 -77 -22 -120 -2 -11 -13 -67 -23 -125 -24 -130 -28 -150 -34 -175 -3
-11 -8 -45 -13 -75 -4 -30 -8 -57 -9 -60 -1 -3 -5 -25 -9 -50 -8 -43 -10 -53
-21 -102 -3 -13 -8 -41 -11 -63 -3 -22 -11 -67 -17 -100 -12 -58 -14 -61 -62
-86 -28 -14 -93 -48 -145 -76 -52 -28 -158 -83 -235 -123 -77 -40 -180 -94
-230 -120 -49 -26 -148 -78 -220 -115 -261 -136 -479 -249 -670 -350 -44 -23
-165 -86 -270 -140 -104 -54 -191 -99 -193 -101 -2 -1 20 -51 48 -111 106
-218 184 -381 235 -488 29 -60 83 -173 120 -250 37 -77 91 -189 120 -250 29
-60 85 -177 125 -260 258 -536 317 -660 324 -681 4 -14 -82 -198 -297 -630
-167 -335 -393 -789 -502 -1009 -109 -220 -200 -403 -201 -406 -2 -4 22 -20
54 -36 31 -17 140 -75 242 -130 102 -55 221 -119 265 -143 44 -23 103 -55 130
-70 28 -15 80 -44 118 -64 37 -20 97 -52 135 -72 37 -20 90 -49 117 -64 28
-15 86 -46 130 -70 44 -24 98 -53 120 -65 42 -24 114 -62 260 -140 50 -26 104
-56 120 -65 27 -16 140 -76 257 -138 53 -28 51 -19 92 -277 3 -16 17 -100 31
-185 14 -85 28 -168 31 -185 3 -16 13 -79 24 -140 10 -60 21 -128 24 -150 4
-22 8 -51 11 -65 7 -34 11 -58 20 -110 4 -25 9 -52 10 -60 1 -8 6 -35 9 -60 4
-25 13 -79 21 -120 8 -41 17 -93 20 -114 3 -21 7 -48 10 -60 2 -12 7 -37 10
-56 2 -19 6 -44 9 -55 2 -11 7 -42 11 -70 5 -27 9 -52 10 -55 1 -3 5 -30 10
-60 5 -30 9 -57 10 -60 1 -3 5 -30 9 -60 5 -30 10 -64 12 -75 2 -11 8 -47 14
-80 6 -33 15 -86 21 -118 l12 -58 38 6 c22 3 58 8 82 11 23 3 53 7 67 9 35 5
246 33 299 40 23 3 55 7 70 10 14 2 80 11 146 20 66 9 134 18 150 20 17 2 53
7 80 10 28 4 61 8 75 10 14 2 63 9 110 15 47 6 96 13 110 15 14 2 48 6 75 10
28 3 57 8 65 10 8 2 46 7 85 10 38 4 72 8 75 10 3 1 32 6 65 9 33 4 71 9 85
11 14 3 45 7 70 10 25 3 72 10 105 15 33 5 85 12 115 15 30 3 82 10 115 15 33
5 85 12 117 15 l56 5 84 -81 c45 -45 274 -269 508 -499 234 -230 480 -471 547
-536 67 -66 203 -199 302 -297 l181 -178 86 83 c48 46 105 101 128 123 23 22
118 112 210 200 92 88 196 186 229 219 94 89 393 374 456 435 31 29 121 115
201 191 248 237 274 261 306 292 l32 30 77 -12 c42 -6 86 -13 98 -15 21 -4 49
-8 132 -20 22 -3 85 -12 140 -20 113 -18 130 -20 198 -30 27 -4 59 -8 70 -11
12 -2 42 -6 67 -9 25 -3 57 -8 72 -11 15 -3 39 -7 55 -9 15 -2 42 -6 58 -9 17
-3 84 -12 150 -21 66 -9 122 -18 125 -20 3 -2 34 -6 70 -10 36 -4 74 -9 85
-11 11 -2 83 -13 160 -24 77 -12 151 -23 165 -25 14 -2 48 -7 75 -11 28 -3 59
-8 70 -10 11 -3 43 -7 70 -10 28 -3 52 -7 55 -9 3 -2 33 -7 65 -10 33 -4 69
-9 80 -11 11 -2 41 -7 66 -10 l46 -6 7 38 c8 51 13 79 36 199 10 55 21 116 24
135 7 44 15 88 21 120 8 41 14 68 39 210 14 74 28 149 31 165 22 122 66 365
70 390 3 17 8 41 10 55 3 14 8 36 10 50 3 14 12 63 20 110 9 47 18 97 20 110
3 14 14 75 25 135 11 61 22 121 25 135 3 14 14 77 25 140 43 246 41 241 75
260 34 19 233 123 440 230 77 40 181 94 230 120 50 26 153 80 230 120 77 40
176 92 220 115 44 23 148 77 230 120 83 43 193 100 245 128 52 27 160 83 240
125 80 41 146 76 148 77 3 2 -116 254 -273 580 -43 88 -101 210 -130 270 -29
61 -84 175 -122 255 -39 80 -95 197 -125 260 -31 63 -83 171 -116 240 -230
478 -214 441 -200 474 6 17 157 321 334 676 176 355 398 800 492 989 l171 345
-27 16 c-24 15 -86 48 -262 143 -30 16 -86 46 -125 67 -38 21 -155 84 -260
140 -104 56 -218 118 -252 136 -35 19 -93 50 -130 70 -38 20 -90 49 -118 64
-27 15 -79 43 -115 62 -93 50 -456 245 -515 278 -174 94 -202 111 -202 122 0
16 -14 98 -29 183 -2 11 -13 74 -24 140 -11 66 -22 130 -24 141 -2 12 -7 39
-10 60 -13 83 -62 380 -71 424 -2 14 -11 68 -20 120 -9 52 -25 149 -36 215
-11 66 -22 131 -24 145 -4 28 -63 381 -70 420 -11 60 -28 157 -31 185 -2 17
-6 41 -10 55 -3 14 -8 43 -10 65 -8 68 -13 75 -42 71 -15 -3 -49 -7 -77 -11
-27 -3 -61 -8 -75 -10 -14 -2 -63 -9 -110 -15 -47 -6 -101 -13 -120 -16 -19
-3 -55 -7 -80 -10 -25 -2 -56 -6 -70 -9 -14 -2 -61 -9 -106 -15 -44 -6 -89
-12 -100 -14 -10 -2 -48 -7 -84 -11 -36 -4 -72 -9 -81 -10 -9 -2 -40 -6 -70
-10 -30 -3 -66 -8 -80 -10 -14 -3 -43 -7 -64 -10 -69 -8 -120 -16 -145 -20
-14 -2 -52 -7 -85 -10 -33 -4 -67 -8 -75 -10 -8 -2 -44 -7 -80 -10 -36 -4 -67
-8 -70 -10 -3 -2 -33 -6 -67 -10 -34 -3 -72 -8 -85 -10 -22 -5 -216 -31 -303
-41 -22 -3 -49 -7 -60 -9 -11 -2 -47 -7 -81 -10 l-60 -7 -96 94 c-53 51 -280
274 -505 495 -224 220 -473 465 -553 542 -80 78 -217 213 -305 301 l-161 159
-28 -24z m-574 -2960 l576 -286 84 40 c46 21 160 76 253 121 94 45 215 104
270 130 99 47 173 82 514 247 96 46 175 82 176 81 1 -2 37 -70 80 -153 43 -82
94 -181 115 -220 21 -38 72 -137 115 -220 43 -82 99 -190 125 -240 26 -49 84
-162 130 -250 80 -153 110 -207 110 -193 0 3 17 2 38 -3 20 -5 125 -24 232
-44 107 -19 204 -37 215 -39 26 -5 183 -34 215 -40 14 -2 115 -21 225 -41 110
-20 211 -39 225 -41 14 -3 61 -11 105 -19 123 -22 129 -23 138 -24 5 -1 6 -22
2 -48 -11 -88 -16 -118 -20 -143 -3 -14 -7 -45 -10 -70 -3 -25 -8 -58 -11 -75
-3 -16 -7 -41 -9 -55 -2 -14 -7 -45 -10 -70 -3 -25 -9 -70 -15 -100 -9 -55
-13 -85 -25 -170 -3 -25 -8 -56 -11 -70 -2 -14 -7 -43 -9 -64 -3 -22 -7 -51
-9 -65 -4 -26 -20 -131 -31 -206 -4 -22 -8 -56 -11 -75 -2 -19 -6 -44 -8 -55
-5 -18 -16 -108 -20 -146 0 -9 76 -96 169 -194 94 -98 186 -195 205 -215 33
-35 327 -343 435 -456 28 -29 79 -82 114 -118 56 -58 62 -68 50 -83 -17 -20
-88 -93 -583 -596 -215 -219 -395 -405 -399 -413 -5 -8 -6 -32 -3 -52 3 -20
15 -109 26 -197 12 -88 23 -171 25 -185 2 -14 9 -62 15 -107 6 -46 13 -95 15
-110 2 -16 6 -50 10 -78 3 -27 8 -61 10 -75 2 -14 7 -44 10 -67 7 -62 16 -124
20 -153 2 -14 6 -45 9 -70 3 -25 8 -54 10 -65 2 -11 7 -45 10 -75 4 -30 10
-77 14 -105 14 -95 18 -91 -98 -109 -19 -3 -89 -15 -155 -26 -66 -11 -136 -23
-155 -26 -19 -3 -127 -21 -240 -40 -113 -19 -216 -37 -230 -39 -86 -14 -449
-75 -470 -79 -14 -2 -32 -5 -40 -5 -16 -1 -22 -11 -91 -139 -23 -42 -56 -104
-74 -137 -18 -33 -97 -179 -175 -325 -78 -146 -155 -287 -170 -315 -15 -27
-41 -75 -57 -105 -17 -30 -53 -99 -82 -152 l-52 -97 -432 215 c-238 119 -526
262 -640 319 -166 83 -213 102 -230 95 -33 -12 -237 -109 -612 -290 -82 -40
-190 -91 -240 -115 -49 -23 -166 -79 -259 -124 -93 -45 -170 -80 -171 -79 -1
2 -37 71 -80 153 -43 83 -97 186 -120 230 -23 44 -82 157 -130 250 -48 94 -96
184 -105 200 -10 17 -64 120 -120 230 -57 110 -108 203 -113 206 -5 4 -44 12
-86 20 -42 7 -80 13 -86 15 -5 1 -37 7 -70 13 -33 6 -71 13 -85 16 -29 6 -47
9 -160 29 -47 8 -108 20 -137 25 -29 6 -74 13 -100 17 -26 3 -51 8 -54 10 -3
1 -57 12 -120 23 -63 11 -152 27 -199 36 -47 8 -100 18 -119 21 -18 3 -43 8
-55 10 -23 5 -129 24 -135 24 -4 0 5 72 14 119 2 12 7 42 9 65 3 22 8 52 10
66 3 14 10 61 16 106 6 44 12 90 15 103 2 12 11 72 20 134 8 62 17 122 20 135
2 12 11 73 20 135 8 62 17 123 20 137 2 14 16 106 30 205 14 99 28 188 31 198
4 12 -16 41 -68 94 -40 42 -86 91 -103 108 -244 256 -370 388 -415 435 -30 32
-125 131 -210 220 -85 90 -164 171 -174 182 -25 23 -103 -62 594 648 307 313
385 397 385 419 1 23 -16 167 -30 261 -6 43 -23 172 -30 225 -3 22 -18 137
-35 255 -16 118 -34 253 -40 300 -6 47 -13 96 -15 110 -10 68 -15 100 -21 155
-13 110 -24 97 116 122 69 12 143 24 165 27 22 4 51 8 65 10 61 11 147 26 175
30 17 3 86 15 155 26 69 12 139 24 155 26 17 3 53 9 80 14 28 5 70 12 95 15
25 3 52 8 61 11 10 3 30 6 45 8 16 2 47 7 69 11 54 10 59 11 147 25 l76 12 68
127 c37 69 79 146 92 171 45 82 127 235 197 365 21 39 48 88 60 110 12 22 77
142 144 268 l123 227 67 -34 c36 -19 326 -164 643 -321z"/>
<path d="M6540 8599 c-47 -44 -119 -113 -160 -153 -41 -39 -118 -113 -172
-164 -53 -51 -102 -90 -110 -88 -7 3 -31 7 -53 10 -43 5 -69 9 -210 31 -49 8
-110 17 -135 20 -25 3 -99 14 -165 24 -66 10 -121 18 -122 16 -3 -2 -21 -94
-29 -145 -3 -19 -7 -42 -9 -50 -3 -8 -7 -33 -11 -55 -3 -22 -10 -59 -15 -83
-5 -23 -12 -59 -14 -80 -3 -20 -10 -57 -15 -82 -5 -25 -14 -70 -19 -100 -14
-74 -20 -102 -23 -105 -2 -1 -66 -35 -143 -75 -77 -40 -176 -92 -220 -115 -44
-23 -121 -64 -172 -90 l-92 -48 33 -66 c19 -36 44 -88 56 -116 13 -27 65 -137
117 -244 51 -106 95 -201 96 -210 1 -9 -67 -154 -151 -322 -83 -168 -152 -310
-152 -315 0 -5 42 -31 93 -58 50 -27 161 -87 245 -133 85 -46 180 -98 213
-114 32 -17 61 -34 63 -38 5 -7 29 -138 51 -271 3 -19 15 -89 26 -155 11 -66
25 -151 31 -190 6 -38 14 -74 18 -78 4 -4 36 -3 71 2 35 5 88 13 118 16 30 4
61 8 70 10 9 1 41 6 72 9 31 4 65 8 75 10 11 2 48 7 84 11 36 4 67 9 71 10 3
2 36 7 75 10 l69 7 248 -244 c137 -133 252 -244 255 -245 4 -2 44 32 88 75 45
42 152 144 237 225 195 186 198 189 213 183 7 -3 48 -10 92 -16 43 -6 88 -12
99 -14 11 -3 44 -7 74 -11 30 -3 61 -8 69 -10 8 -2 36 -7 62 -10 50 -5 105
-13 153 -22 77 -13 135 -19 136 -14 1 8 6 36 36 196 14 77 27 149 29 160 1 11
9 56 18 100 8 44 18 94 20 110 13 74 24 126 27 129 2 2 72 38 154 81 83 43
182 95 220 115 39 20 112 58 162 84 l93 48 -14 26 c-8 15 -34 70 -59 122 -100
212 -218 456 -227 473 -8 14 21 81 145 332 86 173 156 318 156 322 1 6 -92 58
-311 175 -52 28 -120 64 -150 81 -30 17 -77 42 -105 57 l-50 26 -17 84 c-9 47
-19 104 -22 128 -3 23 -7 46 -9 50 -3 4 -8 34 -11 67 -4 33 -9 67 -11 75 -2 8
-7 31 -10 50 -3 19 -8 42 -10 50 -2 8 -7 35 -10 60 -6 54 -14 99 -21 123 -6
19 -2 19 -149 -3 -33 -5 -81 -12 -107 -15 -49 -5 -101 -12 -153 -20 -16 -2
-52 -7 -80 -11 -27 -3 -58 -8 -67 -9 -10 -2 -48 -7 -85 -10 l-68 -7 -250 246
c-137 135 -252 245 -255 245 -3 1 -43 -36 -90 -80z"/>
</g>
</svg>
